HIERARCHY
ROOT Hips
{
	OFFSET 0.000000 0.000000 0.000000
	CHANNELS 6 Xposition Yposition Zposition Zrotation Yrotation Xrotation 
	JOINT LHipJoint
	{
		OFFSET 0.000000 0.000000 0.000000
		CHANNELS 3 Zrotation Yrotation Xrotation
		JOINT LeftUpLeg
		{
			OFFSET 1.363060 -1.794630 0.839290
			CHANNELS 3 Zrotation Yrotation Xrotation
			JOINT LeftLeg
			{
				OFFSET 2.448110 -6.726130 0.000000
				CHANNELS 3 Zrotation Yrotation Xrotation
				JOINT LeftFoot
				{
					OFFSET 2.562200 -7.039590 0.000000
					CHANNELS 3 Zrotation Yrotation Xrotation
					JOINT LeftToeBase
					{
						OFFSET 0.157640 -0.433110 2.322550
						CHANNELS 3 Zrotation Yrotation Xrotation
						End Site
						{
							OFFSET 0.000000 0.000000 0.000000
						}
					}
				}
			}
		}
	}
	JOINT RHipJoint
	{
		OFFSET 0.000000 0.000000 0.000000
		CHANNELS 3 Zrotation Yrotation Xrotation
		JOINT RightUpLeg
		{
			OFFSET -1.305520 -1.794630 0.839290
			CHANNELS 3 Zrotation Yrotation Xrotation
			JOINT RightLeg
			{
				OFFSET -2.542530 -6.985550 0.000000
				CHANNELS 3 Zrotation Yrotation Xrotation
				JOINT RightFoot
				{
					OFFSET -2.568260 -7.056230 0.000000
					CHANNELS 3 Zrotation Yrotation Xrotation
					JOINT RightToeBase
					{
						OFFSET -0.164730 -0.452590 2.363150
						CHANNELS 3 Zrotation Yrotation Xrotation
						End Site
						{
							OFFSET 0.000000 0.000000 0.000000
						}
					}
				}
			}
		}
	}
	JOINT LowerBack
	{
		OFFSET 0.000000 0.000000 0.000000
		CHANNELS 3 Zrotation Yrotation Xrotation
		JOINT Spine
		{
			OFFSET 0.028270 2.035590 -0.193380
			CHANNELS 3 Zrotation Yrotation Xrotation
			JOINT Spine1
			{
				OFFSET 0.056720 2.048850 -0.042750
				CHANNELS 3 Zrotation Yrotation Xrotation
				JOINT Neck
				{
					OFFSET 0.000000 0.000000 0.000000
					CHANNELS 3 Zrotation Yrotation Xrotation
					JOINT Neck1
					{
						OFFSET -0.054170 1.746240 0.172020
						CHANNELS 3 Zrotation Yrotation Xrotation
						JOINT Head
						{
							OFFSET 0.104070 1.761360 -0.123970
							CHANNELS 3 Zrotation Yrotation Xrotation
							End Site
							{
								OFFSET 0.000000 0.000000 0.000000
							}
						}
					}
				}
				JOINT LeftShoulder
				{
					OFFSET 0.000000 0.000000 0.000000
					CHANNELS 3 Zrotation Yrotation Xrotation
					JOINT LeftArm
					{
						OFFSET 3.362410 1.200890 -0.311210
						CHANNELS 3 Zrotation Yrotation Xrotation
						JOINT LeftForeArm
						{
							OFFSET 4.983000 -0.000000 -0.000000
							CHANNELS 3 Zrotation Yrotation Xrotation
							JOINT LeftHand
							{
								OFFSET 3.483560 -0.000000 -0.000000
								CHANNELS 3 Zrotation Yrotation Xrotation
								JOINT LeftFingerBase
								{
									OFFSET 0.000000 0.000000 0.000000
									CHANNELS 3 Zrotation Yrotation Xrotation
									JOINT LeftHandIndex1
									{
										OFFSET 0.715260 -0.000000 -0.000000
										CHANNELS 3 Zrotation Yrotation Xrotation
										End Site
										{
											OFFSET 0.000000 0.000000 0.000000
										}
									}
								}
								JOINT LThumb
								{
									OFFSET 0.000000 0.000000 0.000000
									CHANNELS 3 Zrotation Yrotation Xrotation
									End Site
									{
										OFFSET 0.000000 0.000000 0.000000
									}
								}
							}
						}
					}
				}
				JOINT RightShoulder
				{
					OFFSET 0.000000 0.000000 0.000000
					CHANNELS 3 Zrotation Yrotation Xrotation
					JOINT RightArm
					{
						OFFSET -3.136600 1.374050 -0.404650
						CHANNELS 3 Zrotation Yrotation Xrotation
						JOINT RightForeArm
						{
							OFFSET -5.241900 -0.000000 -0.000000
							CHANNELS 3 Zrotation Yrotation Xrotation
							JOINT RightHand
							{
								OFFSET -3.444170 -0.000000 -0.000000
								CHANNELS 3 Zrotation Yrotation Xrotation
								JOINT RightFingerBase
								{
									OFFSET 0.000000 0.000000 0.000000
									CHANNELS 3 Zrotation Yrotation Xrotation
									JOINT RightHandIndex1
									{
										OFFSET -0.622530 -0.000000 -0.000000
										CHANNELS 3 Zrotation Yrotation Xrotation
										End Site
										{
											OFFSET 0.000000 0.000000 0.000000
										}
									}
								}
								JOINT RThumb
								{
									OFFSET 0.000000 0.000000 0.000000
									CHANNELS 3 Zrotation Yrotation Xrotation
									End Site
									{
										OFFSET 0.000000 0.000000 0.000000
									}
								}
							}
						}
					}
				}
			}
		}
	}
}
MOTION
Frames: 11
Frame Time: 0.033333
-0.064523 16.518545 -0.064523 -3.257707 -2.886159 3.977878 -1.876225 18.251320 3.133191 -16.435793 -5.815989 -13.890487 -8.562014 -10.287830 -28.261727 5.032653 20.383891 49.096134 0.000000 0.000000 0.000000 -2.605666 -20.709416 -6.222845 30.995183 3.454003 -2.634379 -1.602856 -5.042442 20.627758 -0.517406 10.900766 -28.745167 0.000000 0.000000 0.000000 1.373470 0.532564 5.996783 2.911792 0.325313 13.490614 0.671594 1.635543 -10.115643 6.188934 -0.997132 -9.891043 -2.549648 -0.216491 -1.723919 0.000000 0.000000 0.000000 1.134980 10.960155 8.699994 -69.869510 -4.121588 20.004019 -15.279017 -77.869528 0.428325 2.345470 -14.882926 0.207584 2.402712 -14.879180 0.000000 0.000000 0.000000 0.000000 0.000000 0.000000 0.000000 -6.365874 -9.923599 8.139986 67.952279 5.537941 18.526858 16.593343 76.556984 0.357501 -1.037788 12.435029 0.176076 -1.062019 12.436830 0.000000 0.000000 0.000000 0.000000 0.000000 0.000000 0.000000 
-0.055685 16.548348 0.093300 -2.895157 -2.946109 4.100541 -1.586929 18.313783 2.983565 -17.277871 -5.720422 -13.399426 -8.408270 -10.011431 -27.405960 4.398483 19.397069 46.815950 0.000000 0.000000 0.000000 -2.360897 -20.781435 -5.840722 30.478351 4.317895 -3.514903 -2.418736 -5.345725 22.575551 -0.498245 10.884611 -28.801863 0.000000 0.000000 0.000000 1.196328 0.567887 5.839393 2.720883 0.315535 13.529556 0.664087 1.603032 -10.212252 6.082299 -0.974494 -9.756718 -2.458721 -0.206831 -1.670540 0.000000 0.000000 0.000000 1.063437 10.994330 8.708070 -69.796835 -4.104534 20.100506 -15.460217 -77.744597 0.434141 2.288763 -14.854107 0.210591 2.344651 -14.850799 0.000000 0.000000 0.000000 0.000000 0.000000 0.000000 0.000000 -6.202850 -10.080071 8.119615 67.824267 5.484889 18.548092 16.723142 76.394703 0.357193 -1.015605 12.402793 0.175954 -1.039485 12.404663 0.000000 0.000000 0.000000 0.000000 0.000000 0.000000 0.000000 
-0.044594 16.579971 0.250528 -2.534901 -2.976844 4.231329 -1.328578 18.353147 2.809965 -18.086718 -5.638155 -12.941108 -8.255476 -9.709495 -26.455763 3.808288 18.372923 44.471059 0.000000 0.000000 0.000000 -2.092644 -20.789670 -5.431915 29.878114 5.154662 -4.412440 -3.162873 -5.629186 24.398624 -0.458951 10.786802 -28.735595 0.000000 0.000000 0.000000 1.023883 0.592459 5.674455 2.534195 0.296248 13.564010 0.657511 1.561634 -10.307473 5.976208 -0.952209 -9.621277 -2.369054 -0.197446 -1.617027 0.000000 0.000000 0.000000 0.991530 11.023745 8.717371 -69.724200 -4.088500 20.195763 -15.641996 -77.618709 0.439886 2.232190 -14.824970 0.213562 2.286736 -14.822091 0.000000 0.000000 0.000000 0.000000 0.000000 0.000000 0.000000 -6.040607 -10.240381 8.098964 67.695450 5.430803 18.568224 16.852681 76.232310 0.356853 -0.993658 12.370471 0.175816 -1.017192 12.372408 0.000000 0.000000 0.000000 0.000000 0.000000 0.000000 0.000000 
-0.031299 16.612965 0.406759 -2.181115 -2.980080 4.367037 -1.100552 18.374814 2.616461 -18.857854 -5.569944 -12.519010 -8.106771 -9.382343 -25.417569 3.266400 17.323058 42.083641 0.000000 0.000000 0.000000 -1.809366 -20.741228 -5.004619 29.208212 5.949120 -5.311748 -3.834282 -5.896827 26.091704 -0.402945 10.618894 -28.557875 0.000000 0.000000 0.000000 0.859577 0.606414 5.505237 2.352736 0.267912 13.594961 0.651277 1.512021 -10.401405 5.870506 -0.930267 -9.484731 -2.280606 -0.188326 -1.563493 0.000000 0.000000 0.000000 0.919126 11.048862 8.727753 -69.651593 -4.073422 20.289750 -15.824262 -77.491901 0.445560 2.175780 -14.795517 0.216496 2.228997 -14.793060 0.000000 0.000000 0.000000 0.000000 0.000000 0.000000 0.000000 -5.879340 -10.404112 8.078013 67.565929 5.375933 18.587272 16.981937 76.069798 0.356481 -0.971946 12.338058 0.175661 -0.995140 12.340059 0.000000 0.000000 0.000000 0.000000 0.000000 0.000000 0.000000 
-0.016367 16.646923 0.561630 -1.837018 -2.958424 4.504954 -0.902132 18.383465 2.407675 -19.587958 -5.516851 -12.135850 -7.958497 -9.031839 -24.300526 2.774248 16.257829 39.677815 0.000000 0.000000 0.000000 -1.517784 -20.643638 -4.566306 28.481372 6.690059 -6.200281 -4.429549 -6.154622 27.654958 -0.333229 10.390752 -28.280834 0.000000 0.000000 0.000000 0.705946 0.610308 5.334516 2.177187 0.231251 13.623265 0.644878 1.455040 -10.494140 5.765073 -0.908652 -9.347092 -2.193304 -0.179460 -1.510039 0.000000 0.000000 0.000000 0.846128 11.070229 8.739075 -69.578988 -4.059211 20.382443 -16.006930 -77.364211 0.451162 2.119556 -14.765750 0.219393 2.171455 -14.763707 0.000000 0.000000 0.000000 0.000000 0.000000 0.000000 0.000000 -5.719190 -10.570789 8.056755 67.435798 5.320526 18.605270 17.110891 75.907154 0.356078 -0.950469 12.305548 0.175491 -0.973328 12.307612 0.000000 0.000000 0.000000 0.000000 0.000000 0.000000 0.000000 
0.000725 16.681401 0.715406 -1.506463 -2.914082 4.643339 -0.729374 18.385003 2.185368 -20.277411 -5.477234 -11.790197 -7.819216 -8.656872 -23.108895 2.330863 15.185511 37.262183 0.000000 0.000000 0.000000 -1.222005 -20.505975 -4.122874 27.713033 7.371701 -7.068468 -4.963414 -6.402837 29.096092 -0.253900 10.115164 -27.916656 0.000000 0.000000 0.000000 0.559214 0.606375 5.166851 2.039407 0.185350 13.653879 0.615923 1.394484 -10.631223 5.633196 -0.881704 -9.182023 -2.088572 -0.169157 -1.444472 0.000000 0.000000 0.000000 0.732747 11.123725 8.753542 -69.487853 -4.022352 20.520825 -16.328673 -77.142521 0.460362 2.020974 -14.709697 0.224165 2.070569 -14.708359 0.000000 0.000000 0.000000 0.000000 0.000000 0.000000 0.000000 -5.515142 -10.789709 8.041274 67.245234 5.250908 18.616055 17.331808 75.623612 0.354838 -0.914925 12.244736 0.174925 -0.937227 12.246895 0.000000 0.000000 0.000000 0.000000 0.000000 0.000000 0.000000 
0.019503 16.716037 0.867719 -1.189566 -2.851015 4.779291 -0.583383 18.383319 1.954944 -20.924007 -5.451177 -11.483749 -7.685293 -8.259585 -21.853288 1.934958 14.116001 34.859050 0.000000 0.000000 0.000000 -0.928089 -20.336036 -3.679800 26.915368 7.989611 -7.906664 -5.437300 -6.644697 30.419510 -0.167942 9.800814 -27.476132 0.000000 0.000000 0.000000 0.426058 0.593996 5.002667 1.908294 0.132974 13.682518 0.585899 1.328386 -10.767879 5.501303 -0.855025 -9.015056 -1.984603 -0.159119 -1.379120 0.000000 0.000000 0.000000 0.618124 11.175376 8.768896 -69.395904 -3.986260 20.656589 -16.652413 -76.917383 0.469434 1.922537 -14.652308 0.228872 1.969849 -14.651654 0.000000 0.000000 0.000000 0.000000 0.000000 0.000000 0.000000 -5.311949 -11.011549 8.025256 67.052917 5.181533 18.624615 17.552931 75.337377 0.353531 -0.879794 12.183130 0.174325 -0.901548 12.185379 0.000000 0.000000 0.000000 0.000000 0.000000 0.000000 0.000000 
0.039152 16.750476 1.018553 -0.887010 -2.772630 4.911417 -0.462402 18.381327 1.720156 -21.528804 -5.439170 -11.215537 -7.547661 -7.843350 -20.543549 1.582935 13.054195 32.483392 0.000000 0.000000 0.000000 -0.638950 -20.140736 -3.241299 26.098198 8.543093 -8.709267 -5.851128 -6.884832 31.635090 -0.077251 9.454497 -26.970956 0.000000 0.000000 0.000000 0.306749 0.574260 4.843329 1.783762 0.075105 13.709592 0.554587 1.257677 -10.904177 5.369371 -0.828592 -8.846205 -1.881295 -0.149334 -1.314035 0.000000 0.000000 0.000000 0.502243 11.225757 8.785034 -69.303091 -3.950830 20.789691 -16.978055 -76.688780 0.478378 1.824281 -14.593569 0.233512 1.869332 -14.593578 0.000000 0.000000 0.000000 0.000000 0.000000 0.000000 0.000000 -5.109630 -11.235865 8.008696 66.858884 5.112579 18.630995 17.774208 75.048399 0.352157 -0.845081 12.120722 0.173692 -0.866297 12.123058 0.000000 0.000000 0.000000 0.000000 0.000000 0.000000 0.000000 
0.059696 16.784439 1.167655 -0.600020 -2.682451 5.038585 -0.365996 18.382176 1.484178 -22.090626 -5.440452 -10.985792 -7.407818 -7.409633 -19.188476 1.272262 12.008801 30.150417 0.000000 0.000000 0.000000 -0.357181 -19.927203 -2.810905 25.273711 9.033068 -9.470926 -6.214220 -7.122199 32.749459 0.015490 9.084346 -26.409536 0.000000 0.000000 0.000000 0.202086 0.548183 4.689900 1.665437 0.012814 13.735397 0.521990 1.183353 -11.039601 5.237693 -0.802455 -8.675821 -1.778793 -0.139812 -1.249413 0.000000 0.000000 0.000000 0.385565 11.275055 8.801806 -69.209599 -3.916215 20.919554 -17.303760 -76.457896 0.487149 1.726766 -14.533812 0.238063 1.769593 -14.534461 0.000000 0.000000 0.000000 0.000000 0.000000 0.000000 0.000000 -4.908780 -11.461521 7.991547 66.663930 5.044402 18.635351 17.994460 74.758164 0.350730 -0.810960 12.057865 0.173031 -0.831649 12.060282 0.000000 0.000000 0.000000 0.000000 0.000000 0.000000 0.000000 
0.077615 16.815567 1.312107 -0.348059 -2.575308 5.136993 -0.267905 18.326457 1.232083 -22.591641 -5.402330 -10.702714 -7.239898 -7.008253 -17.936076 1.015600 11.032138 27.977094 0.000000 0.000000 0.000000 -0.068050 -19.628085 -2.430359 24.418599 9.375719 -10.104971 -6.443884 -7.389007 33.675143 0.107524 8.713619 -25.898298 0.000000 0.000000 0.000000 0.053576 0.499050 4.582226 1.593200 -0.058287 13.728291 0.538721 1.105573 -11.075306 5.202886 -0.795609 -8.621853 -1.751051 -0.137339 -1.227551 0.000000 0.000000 0.000000 0.357060 11.252313 8.814091 -69.183492 -3.915942 20.953924 -17.389409 -76.396378 0.489316 1.701553 -14.518790 0.239187 1.743830 -14.519600 0.000000 0.000000 0.000000 0.000000 0.000000 0.000000 0.000000 -4.844281 -11.557312 7.980431 66.605925 5.012628 18.636885 18.049340 74.685542 0.350403 -0.802606 12.042667 0.172880 -0.823166 12.045103 0.000000 0.000000 0.000000 0.000000 0.000000 0.000000 0.000000 
0.095227 16.845795 1.454460 -0.110764 -2.466647 5.229949 -0.190306 18.273852 0.982970 -23.053201 -5.373160 -10.451078 -7.060527 -6.598533 -16.666023 0.791003 10.082342 25.867898 0.000000 0.000000 0.000000 0.214013 -19.323589 -2.059960 23.572798 9.667335 -10.697600 -6.634427 -7.655011 34.524794 0.198241 8.333312 -25.352780 0.000000 0.000000 0.000000 -0.083589 0.446637 4.480743 1.526315 -0.131057 13.721525 0.555206 1.026978 -11.108350 5.170153 -0.789318 -8.570676 -1.725465 -0.135071 -1.207069 0.000000 0.000000 0.000000 0.330350 11.227553 8.826189 -69.159130 -3.916657 20.985476 -17.468845 -76.339146 0.491298 1.678264 -14.504884 0.240215 1.720036 -14.505841 0.000000 0.000000 0.000000 0.000000 0.000000 0.000000 0.000000 -4.783965 -11.649667 7.969409 66.551608 4.982092 18.638114 18.099882 74.618524 0.350096 -0.794954 12.028685 0.172738 -0.815395 12.031140 0.000000 0.000000 0.000000 0.000000 0.000000 0.000000 0.000000 
